<?xml version="1.0" standalone="no"?>
<!DOCTYPE svg PUBLIC "-//W3C//DTD SVG 20010904//EN"
 "http://www.w3.org/TR/2001/REC-SVG-20010904/DTD/svg10.dtd">
<svg version="1.0" xmlns="http://www.w3.org/2000/svg"
 width="250.000000pt" height="235.000000pt" viewBox="0 0 250.000000 235.000000"
 preserveAspectRatio="xMidYMid meet">

<g transform="translate(0.000000,235.000000) scale(0.100000,-0.100000)"
fill="#000000" stroke="none">
<path d="M1895 2149 c-50 -26 -95 -69 -118 -111 -17 -32 -17 -32 0 -8 44 60
76 89 124 110 87 37 138 7 140 -82 1 -51 1 -52 10 -18 25 102 -58 160 -156
109z"/>
<path d="M568 1912 l-478 -217 0 -117 c0 -110 1 -118 22 -132 30 -21 44 -20
104 8 44 20 57 33 85 85 19 34 36 61 40 61 3 0 20 -29 38 -65 18 -36 35 -65
37 -65 2 0 15 22 29 49 21 43 34 54 92 83 l67 33 17 75 c10 41 18 85 19 98 0
46 19 19 50 -75 18 -54 35 -104 39 -110 4 -7 24 35 46 93 l40 106 110 49 c60
27 113 53 118 58 4 4 6 51 5 104 l-3 96 -477 -217z"/>
<path d="M1851 2076 c-26 -27 -23 -66 6 -99 15 -16 15 -19 -4 -40 -29 -31 -43
-61 -43 -91 0 -29 -3 -30 -29 -16 -38 20 -48 82 -27 155 4 11 0 7 -8 -10 -36
-72 -9 -156 54 -170 37 -8 113 24 158 68 36 34 88 115 80 123 -3 2 -11 -9 -18
-26 l-13 -30 -24 26 c-18 20 -30 24 -49 20 -23 -6 -25 -5 -18 16 5 13 8 39 9
58 0 30 -4 35 -25 38 -17 2 -34 -6 -49 -22z"/>
<path d="M1911 1674 c-101 -47 -107 -51 -99 -59 7 -7 208 87 208 97 0 13 -9
10 -109 -38z"/>
<path d="M1900 1575 c-74 -36 -137 -70 -139 -76 -4 -14 -12 -17 152 61 76 35
137 68 137 72 0 13 -10 9 -150 -57z"/>
<path d="M1905 1495 c-89 -43 -132 -80 -58 -49 58 25 173 84 173 89 0 11 -30
1 -115 -40z"/>
<path d="M865 1458 c-72 -37 -611 -282 -642 -292 -14 -4 -23 -15 -23 -27 0
-18 5 -17 63 12 80 41 615 284 645 293 13 4 22 15 22 27 0 10 -1 19 -2 19 -2
-1 -30 -15 -63 -32z"/>
<path d="M915 1401 c-11 -10 -307 -144 -342 -155 -13 -4 -23 -15 -23 -26 0
-17 8 -15 78 19 42 21 128 60 189 87 82 36 113 54 113 67 0 19 -2 21 -15 8z"/>
<path d="M842 1058 c-46 -22 -81 -42 -79 -45 10 -9 167 61 167 74 0 7 -1 13
-2 12 -2 0 -41 -19 -86 -41z"/>
<path d="M800 959 c-69 -32 -174 -81 -234 -109 -60 -27 -107 -53 -104 -56 3
-3 100 37 214 89 115 52 219 98 232 101 12 4 22 14 22 22 0 8 -1 14 -2 13 -2
0 -59 -27 -128 -60z"/>
<path d="M618 962 c-37 -15 -68 -32 -68 -39 0 -7 30 1 75 20 41 18 75 35 75
40 0 10 -8 8 -82 -21z"/>
<path d="M801 884 c-62 -30 -111 -57 -108 -60 2 -3 53 15 111 40 59 26 111 46
116 46 6 0 10 7 10 15 0 20 0 20 -129 -41z"/>
<path d="M685 754 c-126 -57 -248 -111 -270 -120 -22 -9 -35 -18 -29 -21 6 -2
121 44 255 102 134 58 254 110 267 115 20 9 32 32 15 29 -5 -1 -111 -48 -238
-105z"/>
<path d="M526 760 c-48 -21 -103 -44 -122 -50 -32 -11 -51 -27 -42 -36 4 -3
267 112 277 122 15 14 -37 -2 -113 -36z"/>
<path d="M283 723 c-47 -20 -83 -41 -83 -49 0 -10 29 0 93 32 102 51 107 54
86 54 -8 0 -51 -17 -96 -37z"/>
<path d="M293 584 c-18 -8 -33 -19 -33 -24 0 -14 10 -12 49 9 41 22 29 33 -16
15z"/>
<path d="M603 543 c4 -3 1 -13 -6 -22 -10 -14 -10 -14 4 -4 9 7 20 9 25 5 4
-4 2 1 -5 11 -7 9 -16 17 -19 17 -3 0 -2 -3 1 -7z"/>
<path d="M646 538 c3 -5 10 -6 15 -3 13 9 11 12 -6 12 -8 0 -12 -4 -9 -9z"/>
</g>
</svg>
